<svg width="100" height="66" viewBox="0 0 100 66" fill="none" xmlns="http://www.w3.org/2000/svg">
<g filter="url(#filter0_d)">
<path fill-rule="evenodd" clip-rule="evenodd" d="M42.2261 17.8386L31.2268 17.8409C31.0448 17.8409 31.4223 18.196 31.5274 18.3567C32.2542 19.6111 33.1634 21.1723 33.1634 23.1432V24.2181C33.1634 26.1119 32.2285 28.1598 31.3973 29.2603C30.8519 29.9513 30.3323 30.3863 29.4751 30.7449C28.904 30.975 27.4494 31.3335 26.6702 31.3335H25.3196C23.7872 31.3335 22.2806 30.6935 21.3457 30.0537C20.515 29.5163 19.5277 28.0316 19.5277 26.6497V25.7282C19.5277 23.8085 20.8785 22.0169 22.8522 22.0169H23.3199C26.0209 22.0169 27.6309 26.496 28.5925 26.496C29.1378 26.496 29.3193 25.1906 29.3193 24.5509V24.2181C29.3193 23.7831 29.2154 22.7848 29.1115 22.4521C28.9817 21.9146 28.8002 21.4026 28.6702 20.9677C28.4367 20.0205 27.7352 19.2015 27.2416 18.5104C26.3325 17.2818 24.0471 16.0792 21.8392 16.0792H21.0081C17.2519 16.0792 14.1674 18.6699 12.8243 22.0759C12.6203 22.297 12.4022 22.4528 12.0833 22.5858C11.8176 22.6931 11.1411 22.8597 10.7786 22.8597H10.1503C9.43714 22.8597 8.73627 22.5621 8.30175 22.264C7.91497 22.0143 7.45567 21.3238 7.45567 20.6807V20.252C7.45567 19.3589 8.08405 18.5254 9.00261 18.5254H9.22007C10.4766 18.5254 11.2256 20.6092 11.6726 20.6092C11.9265 20.6092 12.0111 20.0019 12.0111 19.7042V19.5497C12.0111 19.347 11.963 18.8826 11.9147 18.7276C11.854 18.4779 11.7694 18.2396 11.709 18.0372C11.6003 17.5967 11.274 17.2155 11.0445 16.8943C10.6214 16.3228 9.55826 15.7628 8.53106 15.7628H8.14428C5.78828 15.7628 4 17.9539 4 20.3114V20.9902C4 22.5142 4.76113 23.884 5.69171 24.491C5.57082 24.6696 5.20831 24.9077 5.03904 25.1223C4.93062 25.2649 4.86996 25.3245 4.76113 25.4913C4.65249 25.634 4.60407 25.7054 4.51952 25.8841C4.27796 26.3367 4.03617 27.2892 4.03617 27.968C4.16909 27.8846 4.37453 27.6943 4.53137 27.575C4.70068 27.456 4.86996 27.3369 5.05107 27.2294C5.43785 27.0034 5.75194 26.8129 6.19898 26.6225C7.23821 26.1818 7.89064 26.2532 9.31647 26.2532C10.3219 26.2532 11.2823 26.2008 12.0995 26.0133V27.315C12.0995 30.5912 13.736 33.5346 15.7359 34.8399C15.4763 35.224 14.6971 35.7357 14.3332 36.1965C14.0995 36.5033 13.9696 36.6317 13.736 36.9901C13.5021 37.2968 13.3982 37.4505 13.2162 37.8345C12.6971 38.8072 12.1774 40.8546 12.1774 42.3135C12.463 42.1344 12.9049 41.7248 13.2424 41.4687C13.6059 41.2131 13.9696 40.9572 14.3589 40.7267C15.1902 40.2407 15.8655 39.8309 16.8267 39.4213C19.0603 38.4742 20.463 38.6279 23.5276 38.6279C26.0468 38.6279 28.4367 38.4742 30.3581 37.8855C31.4754 37.5528 32.0465 37.2458 33.0076 36.7594C33.4492 36.5291 33.7351 36.299 34.0724 35.9664C34.2541 35.7869 34.9037 35.147 35.0335 35.0702C35.0335 37.6042 34.0464 38.961 32.3842 39.8823C31.7609 40.2149 30.3323 40.6753 29.5012 40.7776C28.4886 40.8804 27.1378 41.0595 26.0728 41.0595C26.2805 42.0065 27.579 43.2863 28.3064 43.824C29.1897 44.4893 30.6182 44.9754 32.1503 44.9754H32.2022L34.0205 44.8477V45.7433C34.0205 46.8695 34.5142 48.2003 35.0854 48.738C35.9238 49.5644 39.2461 52.5022 39.8708 52.5022L42.2261 17.8386V17.8386Z" fill="#32A852"/>
</g>
<g filter="url(#filter1_d)">
<path fill-rule="evenodd" clip-rule="evenodd" d="M57.303 17.8395L68.7732 17.8417C68.9553 17.8417 68.5777 18.1969 68.4726 18.3576C67.7458 19.612 66.8366 21.1732 66.8366 23.1441V24.2189C66.8366 26.1128 67.7715 28.1606 68.6027 29.2611C69.1481 29.9521 69.6676 30.3871 70.5249 30.7458C71.0959 30.9758 72.5506 31.3343 73.3298 31.3343H74.6804C76.2128 31.3343 77.7193 30.6944 78.6543 30.0545C79.485 29.5172 80.4723 28.0325 80.4723 26.6505V25.729C80.4723 23.8093 79.1215 22.0178 77.1477 22.0178H76.6801C73.9791 22.0178 72.369 26.4968 71.4075 26.4968C70.8623 26.4968 70.6807 25.1915 70.6807 24.5518V24.2189C70.6807 23.784 70.7846 22.7856 70.8884 22.453C71.0183 21.9154 71.1998 21.4035 71.3298 20.9685C71.5633 20.0214 72.2648 19.2024 72.7583 18.5113C73.6676 17.2827 75.9529 16.0801 78.1608 16.0801H78.9919C82.7481 16.0801 85.8326 18.6708 87.1757 22.0768C87.3797 22.2978 87.5978 22.4536 87.9167 22.5867C88.1823 22.6939 88.8589 22.8606 89.2214 22.8606H89.8497C90.5628 22.8606 91.2637 22.5629 91.6982 22.2649C92.085 22.0151 92.5443 21.3247 92.5443 20.6815V20.2529C92.5443 19.3598 91.9159 18.5262 90.9974 18.5262H90.7799C89.5234 18.5262 88.7743 20.6101 88.3273 20.6101C88.0735 20.6101 87.9889 20.0028 87.9889 19.7051V19.5505C87.9889 19.3479 88.0369 18.8834 88.0853 18.7285C88.146 18.4787 88.2305 18.2405 88.291 18.038C88.3996 17.5975 88.726 17.2164 88.9555 16.8952C89.3786 16.3237 90.4417 15.7636 91.4689 15.7636H91.8557C94.2117 15.7636 96 17.9547 96 20.3123V20.991C96 22.515 95.2389 23.8849 94.3083 24.4918C94.4292 24.6705 94.7917 24.9086 94.9609 25.1231C95.0694 25.2658 95.13 25.3253 95.2389 25.4922C95.3475 25.6348 95.3959 25.7063 95.4805 25.885C95.722 26.3376 95.9638 27.2901 95.9638 27.9688C95.8309 27.8855 95.6254 27.6951 95.4686 27.5758C95.2993 27.4569 95.13 27.3377 94.9489 27.2303C94.5621 27.0043 94.248 26.8137 93.801 26.6233C92.7618 26.1826 92.1093 26.2541 90.6835 26.2541C89.6782 26.2541 88.7177 26.2017 87.9005 26.0142V27.3158C87.9005 30.592 86.264 33.5354 84.2641 34.8408C84.5237 35.2248 85.3029 35.7365 85.6668 36.1973C85.9005 36.5042 86.0303 36.6325 86.264 36.9909C86.4979 37.2976 86.6018 37.4513 86.7838 37.8353C87.3028 38.8081 87.8226 40.8555 87.8226 42.3144C87.5369 42.1353 87.0951 41.7256 86.7576 41.4696C86.3941 41.2139 86.0304 40.958 85.6411 40.7275C84.8098 40.2416 84.1345 39.8318 83.1733 39.4222C80.9397 38.475 79.5369 38.6287 76.4724 38.6287C73.9532 38.6287 71.5633 38.475 69.6419 37.8863C68.5245 37.5537 67.9535 37.2466 66.9924 36.7603C66.5508 36.53 66.2649 36.2999 65.9276 35.9672C65.7459 35.7877 65.0963 35.1479 64.9665 35.0711C64.9665 37.6051 65.9536 38.9618 67.6158 39.8831C68.2391 40.2158 69.6676 40.6761 70.4987 40.7785C71.5114 40.8813 72.8622 41.0604 73.9272 41.0604C73.7195 42.0073 72.421 43.2871 71.6935 43.8249C70.8103 44.4901 69.3818 44.9763 67.8497 44.9763H67.7977L65.9795 44.8486V45.7441C65.9795 46.8704 65.4858 48.2011 64.9145 48.7389C64.0762 49.5652 60.7538 52.5031 60.1292 52.5031L57.303 17.8395V17.8395Z" fill="#32A852"/>
</g>
<g filter="url(#filter2_d)">
<path fill-rule="evenodd" clip-rule="evenodd" d="M49.9754 0L68.8474 11.1071H31.1037L49.9754 0Z" fill="#264653"/>
</g>
<g filter="url(#filter3_d)">
<path fill-rule="evenodd" clip-rule="evenodd" d="M31.1775 12.5213V16.296H68.7733V12.5213H31.1775V12.5213Z" fill="#264653"/>
</g>
<g filter="url(#filter4_d)">
<path fill-rule="evenodd" clip-rule="evenodd" d="M44.1245 52.5058L46.4013 17.9363H53.5773L55.6185 52.5254L49.9768 57.1172L44.1245 52.5058V52.5058Z" fill="#264653"/>
</g>
<defs>
<filter id="filter0_d" x="0" y="15.7628" width="46.2261" height="44.7395" filterUnits="userSpaceOnUse" color-interpolation-filters="sRGB">
<feFlood flood-opacity="0" result="BackgroundImageFix"/>
<feColorMatrix in="SourceAlpha" type="matrix" values="0 0 0 0 0 0 0 0 0 0 0 0 0 0 0 0 0 0 127 0"/>
<feOffset dy="4"/>
<feGaussianBlur stdDeviation="2"/>
<feColorMatrix type="matrix" values="0 0 0 0 0 0 0 0 0 0 0 0 0 0 0 0 0 0 0.25 0"/>
<feBlend mode="normal" in2="BackgroundImageFix" result="effect1_dropShadow"/>
<feBlend mode="normal" in="SourceGraphic" in2="effect1_dropShadow" result="shape"/>
</filter>
<filter id="filter1_d" x="53.303" y="15.7636" width="46.697" height="44.7395" filterUnits="userSpaceOnUse" color-interpolation-filters="sRGB">
<feFlood flood-opacity="0" result="BackgroundImageFix"/>
<feColorMatrix in="SourceAlpha" type="matrix" values="0 0 0 0 0 0 0 0 0 0 0 0 0 0 0 0 0 0 127 0"/>
<feOffset dy="4"/>
<feGaussianBlur stdDeviation="2"/>
<feColorMatrix type="matrix" values="0 0 0 0 0 0 0 0 0 0 0 0 0 0 0 0 0 0 0.25 0"/>
<feBlend mode="normal" in2="BackgroundImageFix" result="effect1_dropShadow"/>
<feBlend mode="normal" in="SourceGraphic" in2="effect1_dropShadow" result="shape"/>
</filter>
<filter id="filter2_d" x="27.1037" y="0" width="45.7437" height="19.1071" filterUnits="userSpaceOnUse" color-interpolation-filters="sRGB">
<feFlood flood-opacity="0" result="BackgroundImageFix"/>
<feColorMatrix in="SourceAlpha" type="matrix" values="0 0 0 0 0 0 0 0 0 0 0 0 0 0 0 0 0 0 127 0"/>
<feOffset dy="4"/>
<feGaussianBlur stdDeviation="2"/>
<feColorMatrix type="matrix" values="0 0 0 0 0 0 0 0 0 0 0 0 0 0 0 0 0 0 0.25 0"/>
<feBlend mode="normal" in2="BackgroundImageFix" result="effect1_dropShadow"/>
<feBlend mode="normal" in="SourceGraphic" in2="effect1_dropShadow" result="shape"/>
</filter>
<filter id="filter3_d" x="27.1775" y="12.5213" width="45.5958" height="11.7747" filterUnits="userSpaceOnUse" color-interpolation-filters="sRGB">
<feFlood flood-opacity="0" result="BackgroundImageFix"/>
<feColorMatrix in="SourceAlpha" type="matrix" values="0 0 0 0 0 0 0 0 0 0 0 0 0 0 0 0 0 0 127 0"/>
<feOffset dy="4"/>
<feGaussianBlur stdDeviation="2"/>
<feColorMatrix type="matrix" values="0 0 0 0 0 0 0 0 0 0 0 0 0 0 0 0 0 0 0.25 0"/>
<feBlend mode="normal" in2="BackgroundImageFix" result="effect1_dropShadow"/>
<feBlend mode="normal" in="SourceGraphic" in2="effect1_dropShadow" result="shape"/>
</filter>
<filter id="filter4_d" x="40.1245" y="17.9363" width="19.494" height="47.1809" filterUnits="userSpaceOnUse" color-interpolation-filters="sRGB">
<feFlood flood-opacity="0" result="BackgroundImageFix"/>
<feColorMatrix in="SourceAlpha" type="matrix" values="0 0 0 0 0 0 0 0 0 0 0 0 0 0 0 0 0 0 127 0"/>
<feOffset dy="4"/>
<feGaussianBlur stdDeviation="2"/>
<feColorMatrix type="matrix" values="0 0 0 0 0 0 0 0 0 0 0 0 0 0 0 0 0 0 0.25 0"/>
<feBlend mode="normal" in2="BackgroundImageFix" result="effect1_dropShadow"/>
<feBlend mode="normal" in="SourceGraphic" in2="effect1_dropShadow" result="shape"/>
</filter>
</defs>
</svg>
