<svg width="30" height="30" viewBox="0 0 30 30" fill="none" xmlns="http://www.w3.org/2000/svg">
<path d="M11.2501 13.1445C7.8038 13.1445 5 10.3409 5 6.89461C5 3.44833 7.8038 0.644531 11.2501 0.644531C14.6964 0.644531 17.5002 3.44833 17.5002 6.89461C17.5002 10.3409 14.6964 13.1445 11.2501 13.1445ZM11.2501 2.51953C8.83766 2.51953 6.875 4.48196 6.875 6.89461C6.875 9.30702 8.83766 11.2695 11.2501 11.2695C13.6625 11.2695 15.6252 9.30702 15.6252 6.89461C15.6252 4.48196 13.6625 2.51953 11.2501 2.51953Z" fill="white"/>
<path d="M27.8126 29.3946H20.9374C19.7312 29.3946 18.75 28.4134 18.75 27.207V22.8321C18.75 21.6257 19.7312 20.6445 20.9374 20.6445H27.8126C29.0188 20.6445 30 21.6257 30 22.8321V27.207C30 28.4134 29.0188 29.3946 27.8126 29.3946ZM20.9374 22.5195C20.7651 22.5195 20.625 22.6595 20.625 22.8321V27.207C20.625 27.3795 20.7651 27.5196 20.9374 27.5196H27.8126C27.9849 27.5196 28.125 27.3795 28.125 27.207V22.8321C28.125 22.6595 27.9849 22.5195 27.8126 22.5195H20.9374Z" fill="white"/>
<path d="M26.5623 22.5195H22.1875C21.67 22.5195 21.25 22.0995 21.25 21.582V18.7695C21.25 17.0471 22.6524 15.6445 24.3749 15.6445C26.0975 15.6445 27.4998 17.0471 27.4998 18.7695V21.582C27.4998 22.0995 27.0798 22.5195 26.5623 22.5195ZM23.125 20.6445H25.6248V18.7695C25.6248 18.0807 25.0636 17.5195 24.3749 17.5195C23.6862 17.5195 23.125 18.0807 23.125 18.7695V20.6445Z" fill="white"/>
<path d="M15.6251 26.8945H0.9375C0.419998 26.8945 0 26.4745 0 25.957V21.582C0 18.3083 2.66373 15.6445 5.93742 15.6445H16.875C17.9201 15.6445 18.9487 15.9208 19.8489 16.4445C20.2963 16.7045 20.4474 17.2783 20.1876 17.7258C19.9276 18.1746 19.3538 18.3245 18.905 18.0645C18.2913 17.7084 17.5887 17.5195 16.875 17.5195H5.93742C3.69759 17.5195 1.875 19.3421 1.875 21.582V25.0195H15.6251C16.1426 25.0195 16.5626 25.4395 16.5626 25.957C16.5626 26.4745 16.1426 26.8945 15.6251 26.8945Z" fill="white"/>
</svg>
